<svg xmlns="http://www.w3.org/2000/svg" style="display:none">
  <symbol id="icon-select" viewBox="0 0 16 16" fill="none" stroke="currentColor" stroke-linecap="round" stroke-linejoin="round">
    <path d="M3 2l10 5.5-4.5 1.5L7 13 3 2z"/>
  </symbol>
  <symbol id="icon-pan" viewBox="0 0 16 16" fill="none" stroke="currentColor" stroke-linecap="round" stroke-linejoin="round">
    <path d="M8 2v12M2 8h12"/><path d="M5 5L2 8l3 3M11 5l3 3-3 3"/>
  </symbol>
  <symbol id="icon-wall" viewBox="0 0 16 16" fill="none" stroke="currentColor" stroke-linecap="round">
    <rect x="2" y="6" width="12" height="4" rx="0.5"/>
  </symbol>
  <symbol id="icon-room" viewBox="0 0 16 16" fill="none" stroke="currentColor" stroke-linecap="round" stroke-linejoin="round">
    <rect x="2" y="2" width="12" height="12" rx="1"/>
  </symbol>
  <symbol id="icon-door" viewBox="0 0 16 16" fill="none" stroke="currentColor" stroke-linecap="round" stroke-linejoin="round">
    <path d="M4 14V3a1 1 0 0 1 1-1h6a1 1 0 0 1 1 1v11"/><path d="M2 14h12"/><path d="M10 8.5a2.5 2.5 0 0 1-2.5 2.5"/>
  </symbol>
  <symbol id="icon-window" viewBox="0 0 16 16" fill="none" stroke="currentColor" stroke-linecap="round" stroke-linejoin="round">
    <rect x="2" y="5" width="12" height="6" rx="0.5"/><path d="M8 5v6M2 8h12"/>
  </symbol>
  <symbol id="icon-furniture" viewBox="0 0 16 16" fill="none" stroke="currentColor" stroke-linecap="round" stroke-linejoin="round">
    <rect x="2" y="5" width="12" height="7" rx="1"/><path d="M5 5V4a1 1 0 0 1 1-1h4a1 1 0 0 1 1 1v1"/>
  </symbol>
  <symbol id="icon-text" viewBox="0 0 16 16" fill="none" stroke="currentColor" stroke-linecap="round" stroke-linejoin="round">
    <path d="M3 4h10M8 4v9"/>
  </symbol>
  <symbol id="icon-column" viewBox="0 0 16 16" fill="none" stroke="currentColor" stroke-linecap="round" stroke-linejoin="round">
    <rect x="5" y="2" width="6" height="12" rx="1"/>
  </symbol>
  <symbol id="icon-stair" viewBox="0 0 16 16" fill="none" stroke="currentColor" stroke-linecap="round" stroke-linejoin="round">
    <path d="M2 14h4v-4h4V6h4"/>
  </symbol>
  <symbol id="icon-electrical" viewBox="0 0 16 16" fill="none" stroke="currentColor" stroke-linecap="round" stroke-linejoin="round">
    <path d="M9 2L5 9h6l-4 5"/>
  </symbol>
  <symbol id="icon-zone" viewBox="0 0 16 16" fill="none" stroke="currentColor" stroke-linecap="round" stroke-linejoin="round">
    <rect x="2" y="2" width="12" height="12" rx="1" stroke-dasharray="2.5 2"/>
  </symbol>
  <symbol id="icon-eraser" viewBox="0 0 16 16" fill="none" stroke="currentColor" stroke-linecap="round" stroke-linejoin="round">
    <path d="M12.5 2.5l1 1-7.5 7.5-3-3 7.5-7.5zM2 14h7"/><path d="M5 10l1 1"/>
  </symbol>
  <symbol id="icon-measure" viewBox="0 0 16 16" fill="none" stroke="currentColor" stroke-linecap="round" stroke-linejoin="round">
    <path d="M2 14L14 2"/><path d="M4.5 11.5v2M7.5 8.5v2M10.5 5.5v2"/>
  </symbol>
  <symbol id="icon-grid" viewBox="0 0 16 16" fill="none" stroke="currentColor" stroke-linecap="round">
    <path d="M6 2v12M10 2v12M2 6h12M2 10h12"/>
  </symbol>
  <symbol id="icon-view3d" viewBox="0 0 16 16" fill="none" stroke="currentColor" stroke-linecap="round" stroke-linejoin="round">
    <path d="M8 2l6 3v6l-6 3-6-3V5l6-3z"/><path d="M8 2v12M2 5l6 3 6-3"/>
  </symbol>
  <symbol id="icon-zoom-in" viewBox="0 0 14 14" fill="none" stroke="currentColor" stroke-linecap="round">
    <circle cx="6" cy="6" r="4.5"/><path d="M4.5 6h3M6 4.5v3M10.5 10.5L13 13"/>
  </symbol>
  <symbol id="icon-zoom-out" viewBox="0 0 14 14" fill="none" stroke="currentColor" stroke-linecap="round">
    <circle cx="6" cy="6" r="4.5"/><path d="M4 6h4M10.5 10.5L13 13"/>
  </symbol>
  <symbol id="icon-templates" viewBox="0 0 16 16" fill="none" stroke="currentColor" stroke-linecap="round" stroke-linejoin="round">
    <rect x="2" y="2" width="5" height="5" rx="0.5"/><rect x="9" y="2" width="5" height="5" rx="0.5"/><rect x="2" y="9" width="5" height="5" rx="0.5"/><rect x="9" y="9" width="5" height="5" rx="0.5"/>
  </symbol>
  <symbol id="icon-save" viewBox="0 0 16 16" fill="none" stroke="currentColor" stroke-linecap="round" stroke-linejoin="round">
    <path d="M12 14H4a1 1 0 0 1-1-1V3a1 1 0 0 1 1-1h6.5L14 5.5V13a1 1 0 0 1-1 1z"/><path d="M10 2v3.5H5V2M5 14v-5h6v5"/>
  </symbol>
  <symbol id="icon-trash" viewBox="0 0 16 16" fill="none" stroke="currentColor" stroke-linecap="round" stroke-linejoin="round">
    <path d="M3 5h10M6 5V3.5h4V5M5 5l.5 8h5L11 5"/>
  </symbol>
  <symbol id="icon-undo" viewBox="0 0 14 14" fill="none" stroke="currentColor" stroke-linecap="round" stroke-linejoin="round">
    <path d="M2 5V9h4"/><path d="M12 9a5 5 0 0 0-5-5 5 5 0 0 0-3.5 1.5L2 7"/>
  </symbol>
  <symbol id="icon-redo" viewBox="0 0 14 14" fill="none" stroke="currentColor" stroke-linecap="round" stroke-linejoin="round">
    <path d="M12 5V9H8"/><path d="M2 9a5 5 0 0 1 5-5 5 5 0 0 1 3.5 1.5L12 7"/>
  </symbol>
  <symbol id="icon-hamburger" viewBox="0 0 16 16" fill="none" stroke="currentColor" stroke-linecap="round">
    <path d="M2.5 4.5h11M2.5 8h11M2.5 11.5h11"/>
  </symbol>
  <symbol id="icon-chevron-down" viewBox="0 0 12 12" fill="none" stroke="currentColor" stroke-linecap="round" stroke-linejoin="round">
    <path d="M2.5 4.5L6 8l3.5-3.5"/>
  </symbol>
  <symbol id="icon-newfile" viewBox="0 0 14 14" fill="none" stroke="currentColor" stroke-linecap="round" stroke-linejoin="round">
    <path d="M8 1H3a1 1 0 0 0-1 1v10a1 1 0 0 0 1 1h8a1 1 0 0 0 1-1V6z"/><path d="M8 1v5h4M7 8v4M5 10h4"/>
  </symbol>
  <symbol id="icon-projects" viewBox="0 0 14 14" fill="none" stroke="currentColor" stroke-linecap="round" stroke-linejoin="round">
    <path d="M1 11V4a1 1 0 0 1 1-1h3l1.5 2H12a1 1 0 0 1 1 1v5a1 1 0 0 1-1 1H2a1 1 0 0 1-1-1z"/>
  </symbol>
  <symbol id="icon-import" viewBox="0 0 14 14" fill="none" stroke="currentColor" stroke-linecap="round" stroke-linejoin="round">
    <path d="M7 9V2M4.5 6.5L7 9l2.5-2.5"/><path d="M1 11h12"/>
  </symbol>
  <symbol id="icon-export" viewBox="0 0 14 14" fill="none" stroke="currentColor" stroke-linecap="round" stroke-linejoin="round">
    <path d="M7 1v8M4.5 3.5L7 1l2.5 2.5"/><path d="M1 10v2.5h12V10"/>
  </symbol>
  <symbol id="icon-clusters" viewBox="0 0 14 14" fill="none" stroke="currentColor" stroke-linecap="round" stroke-linejoin="round">
    <rect x="1" y="1" width="5" height="5" rx="0.5"/><rect x="8" y="1" width="5" height="5" rx="0.5"/><rect x="1" y="8" width="11" height="5" rx="0.5"/>
  </symbol>
  <symbol id="icon-arrange" viewBox="0 0 14 14" fill="none" stroke="currentColor" stroke-linecap="round" stroke-linejoin="round">
    <path d="M1 7h12M7 1v12M3 3l8 8M11 3l-8 8" opacity="0.4"/><circle cx="7" cy="7" r="2"/>
  </symbol>
  <symbol id="icon-zones" viewBox="0 0 14 14" fill="none" stroke="currentColor" stroke-linecap="round" stroke-linejoin="round">
    <rect x="1" y="1" width="12" height="12" rx="1" stroke-dasharray="2.5 1.5"/><rect x="3.5" y="3.5" width="7" height="7" rx="0.5"/>
  </symbol>
  <symbol id="icon-spacing" viewBox="0 0 14 14" fill="none" stroke="currentColor" stroke-linecap="round">
    <path d="M1 3.5h12M1 10.5h12M3.5 3.5v7M10.5 3.5v7"/>
  </symbol>
  <symbol id="icon-present" viewBox="0 0 14 14" fill="none" stroke="currentColor" stroke-linecap="round" stroke-linejoin="round">
    <rect x="1" y="2" width="12" height="8" rx="1"/><path d="M7 10v2M4.5 12h5"/>
  </symbol>
  <symbol id="icon-ai" viewBox="0 0 14 14" fill="none" stroke="currentColor" stroke-linecap="round" stroke-linejoin="round">
    <path d="M7 1l1.8 3.6L13 5.3l-3 2.9.7 4.1L7 10.1l-3.7 2.2.7-4.1-3-2.9 4.2-.7z"/>
  </symbol>
  <symbol id="icon-integrations" viewBox="0 0 14 14" fill="none" stroke="currentColor" stroke-linecap="round">
    <path d="M2 12a8 8 0 0 1 8-8M2 12a5 5 0 0 1 5-5"/><circle cx="2.5" cy="11.5" r="1"/>
  </symbol>
  <symbol id="icon-shortcut" viewBox="0 0 14 14" fill="none" stroke="currentColor" stroke-linecap="round" stroke-linejoin="round">
    <rect x="1" y="3" width="12" height="8" rx="1.5"/><path d="M4 7h6M7 5v4" opacity="0.5"/>
  </symbol>
  <symbol id="icon-share" viewBox="0 0 14 14" fill="none" stroke="currentColor" stroke-linecap="round" stroke-linejoin="round">
    <circle cx="11" cy="3" r="1.5"/><circle cx="11" cy="11" r="1.5"/><circle cx="3" cy="7" r="1.5"/><path d="M4.4 6.2l5.2-2.6M4.4 7.8l5.2 2.6"/>
  </symbol>
  <symbol id="icon-portal" viewBox="0 0 14 14" fill="none" stroke="currentColor" stroke-linecap="round" stroke-linejoin="round">
    <circle cx="7" cy="7" r="5.5"/><path d="M7 1.5a8 8 0 0 1 0 11M7 1.5a8 8 0 0 0 0 11M1.5 7h11"/>
  </symbol>
  <symbol id="icon-pdf" viewBox="0 0 14 14" fill="none" stroke="currentColor" stroke-linecap="round" stroke-linejoin="round">
    <path d="M8 1H3a1 1 0 0 0-1 1v10a1 1 0 0 0 1 1h8a1 1 0 0 0 1-1V6z"/><path d="M8 1v5h4"/>
  </symbol>
  <symbol id="icon-image" viewBox="0 0 14 14" fill="none" stroke="currentColor" stroke-linecap="round" stroke-linejoin="round">
    <rect x="1" y="2.5" width="12" height="9" rx="1"/><path d="M1 8.5l3-2.5 2.5 2.5 2-1.5 3.5 3" opacity="0.7"/><circle cx="9.5" cy="5.5" r="1" opacity="0.7"/>
  </symbol>
  <symbol id="icon-boq" viewBox="0 0 14 14" fill="none" stroke="currentColor" stroke-linecap="round" stroke-linejoin="round">
    <rect x="1" y="1" width="12" height="12" rx="1"/><path d="M4 5h6M4 7.5h6M4 10h4"/>
  </symbol>
  <symbol id="icon-sidebar-expand" viewBox="0 0 16 16" fill="none" stroke="currentColor" stroke-linecap="round" stroke-linejoin="round">
    <rect x="1" y="2" width="14" height="12" rx="1.5"/><path d="M5.5 2v12"/><path d="M9 6l2 2-2 2"/>
  </symbol>
  <symbol id="icon-sidebar-collapse" viewBox="0 0 16 16" fill="none" stroke="currentColor" stroke-linecap="round" stroke-linejoin="round">
    <rect x="1" y="2" width="14" height="12" rx="1.5"/><path d="M5.5 2v12"/><path d="M10 6l-2 2 2 2"/>
  </symbol>
</svg>
